<svg width="26" height="20" viewBox="0 0 26 20" fill="none" xmlns="http://www.w3.org/2000/svg">
<g clip-path="url(#clip0_402_331)">
<path d="M25.4258 16.713C25.2767 17.2858 24.9857 17.808 24.582 18.2276C24.1783 18.6472 23.6759 18.9496 23.1248 19.1046C21.1071 19.6765 12.9868 19.6765 12.9868 19.6765C12.9868 19.6765 4.86608 19.6592 2.84844 19.0873C2.29731 18.9323 1.79488 18.6299 1.39117 18.2103C0.987455 17.7907 0.696558 17.2684 0.547441 16.6956C-0.0628477 12.9697 -0.29959 7.29231 0.564199 3.71546C0.713331 3.14267 1.00424 2.62047 1.40794 2.20087C1.81165 1.78127 2.31408 1.4789 2.8652 1.32388C4.88284 0.751986 13.0034 0.751986 13.0034 0.751986C13.0034 0.751986 21.1238 0.751986 23.1413 1.32388C23.6925 1.47889 24.1949 1.78125 24.5987 2.20085C25.0024 2.62045 25.2933 3.14265 25.4424 3.71546C26.0861 7.44664 26.2845 13.1205 25.4258 16.7129V16.713Z" fill="#FF0000"/>
<path d="M10.4023 6.15906L17.1388 10.2143L10.4023 14.2695V6.15906Z" fill="white"/>
</g>
<defs>
<clipPath id="clip0_402_331">
<rect width="26" height="19" fill="white" transform="matrix(1 0 0 -1 0 19.6765)"/>
</clipPath>
</defs>
</svg>
